<svg id="Layer_1" data-name="Layer 1" xmlns="http://www.w3.org/2000/svg" viewBox="0 0 1000 1000"><defs><style>.cls-1{fill:#ff1414;}</style></defs><path class="cls-1" d="M165.69,676a14.4,14.4,0,0,1-10.23-24.56l64-64.46a184.48,184.48,0,0,1,131.25-54.41h223.5a84.83,84.83,0,0,1,84.7,84.74,53.46,53.46,0,0,1-53.38,53.38H410.18a14.41,14.41,0,0,1,0-28.81H605.5a24.58,24.58,0,0,0,24.57-24.57,56,56,0,0,0-55.89-55.92H350.68A155.77,155.77,0,0,0,239.85,607.3l-63.93,64.43A14.38,14.38,0,0,1,165.69,676Z"/><path class="cls-1" d="M359,869.24a14.41,14.41,0,0,1-10.16-24.6L381.51,812a74,74,0,0,1,60.28-21.88L462.64,792a558.36,558.36,0,0,0,328.77-71.86,402.14,402.14,0,0,0,111.4-94.19l41.06-50a18.48,18.48,0,0,0-2.48-25.8,63.35,63.35,0,0,0-87.57,6.33l-9.31,10.3a186.16,186.16,0,0,1-137.8,61.2H644.48a14.41,14.41,0,1,1,0-28.81h62.23a157.11,157.11,0,0,0,116.42-51.72l9.31-10.3a92,92,0,0,1,127.36-9.13,47.31,47.31,0,0,1,6.3,66.19L925,644.19A430.64,430.64,0,0,1,805.71,745.1a586.56,586.56,0,0,1-345.65,75.54l-20.85-1.87c-14-.85-27.51,3.71-37.35,13.55L369.12,865A14.32,14.32,0,0,1,359,869.24Z"/><path class="cls-1" d="M303.42,1000a43.26,43.26,0,0,1-30.76-12.74L36,750.56A43.57,43.57,0,0,1,36,689L94,631c16.46-16.46,45.1-16.42,61.49,0l236.74,236.7a43.42,43.42,0,0,1,0,61.49l-58,58A43.25,43.25,0,0,1,303.42,1000Zm-178.68-353a14.57,14.57,0,0,0-10.34,4.29l-58,58.08a14.67,14.67,0,0,0,0,20.75l236.7,236.7a14.67,14.67,0,0,0,20.75,0l58.05-58a14.61,14.61,0,0,0,0-20.71L135.11,651.37A14.47,14.47,0,0,0,124.74,647.05Z"/><path class="cls-1" d="M283.87,505.27a13.82,13.82,0,0,1-13.82-13.82V291.92c-.08-32.84,3-54.4,64.43-82.42,3.73-1.7,7.23-3.32,10.56-4.87,31.47-14.56,49.69-23,101.09-27.1,2.39-12.94,6.12-35.3,8.09-57.77,2.12-24.32,3.56-50.54,4.52-67.88.41-7.54.71-13,.93-15.74l.06-.68C461.27,15.35,473,7.38,504.53,5l1.23-.1C537.88,2.5,571.08,0,593.29,0s55.41,2.5,87.53,4.91L682,5c31.54,2.37,43.27,10.34,44.81,30.45l0,.68c.23,2.76.52,8.2.94,15.74,1,17.34,2.4,43.56,4.52,67.88,2,22.76,5.87,45.72,8.22,58.47C794,183,815,192.56,851.28,209.13l.81.37c61.45,28,64.52,49.58,64.44,82.42V447.49a13.82,13.82,0,1,1-27.64,0V291.86c.06-24.87.08-35.16-48.27-57.21l-.81-.37C803,217.46,784.44,209,728,205a13.82,13.82,0,0,1-12.54-11,690.08,690.08,0,0,1-10.65-71.81c-2.17-24.76-3.68-52.31-4.59-68.76-.39-7.06-.7-12.64-.89-15l-.06-.77c0-.51-.08-1.11-.14-1.63-1.76-.81-6.71-2.44-19.18-3.38l-1.23-.09c-31.6-2.38-64.28-4.84-85.45-4.84s-53.85,2.46-85.45,4.84l-1.23.09c-12.47.94-17.42,2.57-19.19,3.38-.05.52-.09,1.12-.13,1.63l-.06.76c-.2,2.42-.5,8-.89,15.06-.91,16.45-2.43,44-4.59,68.76a694,694,0,0,1-10.52,71.17,13.84,13.84,0,0,1-12.67,11c-54.57,3.45-70.39,10.77-101.91,25.36-3.38,1.56-6.92,3.21-10.7,4.93-48.34,22-48.32,32.34-48.26,57.21V491.45A13.82,13.82,0,0,1,283.87,505.27Z"/><path class="cls-1" d="M593.29,273.92a414.11,414.11,0,0,1-111.61-15.5,13.82,13.82,0,1,1,7.43-26.63,382.24,382.24,0,0,0,208.36,0,13.82,13.82,0,0,1,7.43,26.63A414.11,414.11,0,0,1,593.29,273.92Z"/></svg>