<svg id="Layer_1" data-name="Layer 1" xmlns="http://www.w3.org/2000/svg" viewBox="0 0 1000 1000"><defs><style>.cls-1{fill:#ff1414;}</style></defs><path class="cls-1" d="M165.69,676a14.4,14.4,0,0,1-10.23-24.56l64-64.46a184.48,184.48,0,0,1,131.25-54.41h223.5a84.83,84.83,0,0,1,84.7,84.74,53.46,53.46,0,0,1-53.38,53.38H410.18a14.41,14.41,0,0,1,0-28.81H605.5a24.58,24.58,0,0,0,24.57-24.57,56,56,0,0,0-55.89-55.92H350.68A155.77,155.77,0,0,0,239.85,607.3l-63.93,64.43A14.38,14.38,0,0,1,165.69,676Z"/><path class="cls-1" d="M359,869.24a14.41,14.41,0,0,1-10.16-24.6L381.51,812a74,74,0,0,1,60.28-21.88L462.64,792a558.36,558.36,0,0,0,328.77-71.86,402.14,402.14,0,0,0,111.4-94.19l41.06-50a18.48,18.48,0,0,0-2.48-25.8,63.35,63.35,0,0,0-87.57,6.33l-9.31,10.3a186.16,186.16,0,0,1-137.8,61.2H644.48a14.41,14.41,0,1,1,0-28.81h62.23a157.11,157.11,0,0,0,116.42-51.72l9.31-10.3a92,92,0,0,1,127.36-9.13,47.31,47.31,0,0,1,6.3,66.19L925,644.19A430.64,430.64,0,0,1,805.71,745.1a586.56,586.56,0,0,1-345.65,75.54l-20.85-1.87c-14-.85-27.51,3.71-37.35,13.55L369.12,865A14.32,14.32,0,0,1,359,869.24Z"/><path class="cls-1" d="M303.42,1000a43.26,43.26,0,0,1-30.76-12.74L36,750.56A43.57,43.57,0,0,1,36,689L94,631c16.46-16.46,45.1-16.42,61.49,0l236.74,236.7a43.42,43.42,0,0,1,0,61.49l-58,58A43.25,43.25,0,0,1,303.42,1000Zm-178.68-353a14.57,14.57,0,0,0-10.34,4.29l-58,58.08a14.67,14.67,0,0,0,0,20.75l236.7,236.7a14.67,14.67,0,0,0,20.75,0l58.05-58a14.61,14.61,0,0,0,0-20.71L135.11,651.37A14.47,14.47,0,0,0,124.74,647.05Z"/><path class="cls-1" d="M453.05,327.71l-10.64,12.75a43.17,43.17,0,0,0,3,58.44h0a123.18,123.18,0,0,0,20.76,16.38,113.79,113.79,0,0,0,16.8,8.63A43.19,43.19,0,0,0,523.5,453l15.62.09h.16a43.18,43.18,0,0,0,41-29.65,83.47,83.47,0,0,0,19.88-12.43,77.93,77.93,0,0,0,16.61-19.6c8.11-13.62,12.27-29.9,12.39-48.43v-.33c.09-19.16-4.05-35.53-12.33-48.64a80,80,0,0,0-18.16-20.39,43,43,0,0,0,6.21-6.78L614.37,254a43.09,43.09,0,0,0-12.16-62.29A144.14,144.14,0,0,0,585.9,183h0q-2.29-1-4.62-2a42.9,42.9,0,0,0-10.05-16.12l0,0,0,0a42.79,42.79,0,0,0-30.39-12.76l-15.6-.1H525a43.19,43.19,0,0,0-41.48,31.44,81.12,81.12,0,0,0-17.37,12,78.76,78.76,0,0,0-15.91,20.09c-7.59,13.61-11.48,30-11.59,48.58-.11,20.6,4.71,37.83,14.3,51.24q2.63,3.66,5.51,6.93A44.35,44.35,0,0,0,453.05,327.71Zm10.27,30.2L474,345.17a15.83,15.83,0,0,1,23.63-.77,47.8,47.8,0,0,0,13.08,10,41.92,41.92,0,0,0,18.78,4.37h.46c8.82,0,15.42-1.53,19.12-4.42,2-1.53,4.58-4.49,4.63-12.33,0-3.45-.59-6-1.75-7.43a14.74,14.74,0,0,0-6.38-4.55,90.44,90.44,0,0,0-15.21-4.14h-.06a16.15,16.15,0,0,1-1.79-.35l-.71-.14-1.47-.28a176.4,176.4,0,0,1-28.64-7.62c-8.88-3.37-16.47-9.41-22.57-17.94s-9.29-20.52-9.22-35.23c.08-14,2.82-25.93,8.15-35.49a52.39,52.39,0,0,1,24.84-22.54,67.42,67.42,0,0,1,10.24-3.65l.05-7.61A15.89,15.89,0,0,1,525,179.25l15.64.1a15.84,15.84,0,0,1,15.75,15.93l0,6.44a98.15,98.15,0,0,1,18.42,6.15,116.94,116.94,0,0,1,13.22,7,15.85,15.85,0,0,1,4.49,22.92l-9.57,13a15.83,15.83,0,0,1-21.08,4.08,62.6,62.6,0,0,0-12-5.88,41.69,41.69,0,0,0-13.73-2.53h-.41c-7.94,0-13.91,1.45-17.25,4.17-1.82,1.49-4.26,4.34-4.29,11.86,0,3.58.59,6,1.89,7.45a16.69,16.69,0,0,0,7.28,4.76,172,172,0,0,0,18.36,5l1.21.3a5.47,5.47,0,0,0,.62.14l1.4.32,1,.2.12,0a128,128,0,0,1,26.88,8.86,50.41,50.41,0,0,1,20.91,19.09c5.47,8.67,8.19,20.11,8.12,34v.24c-.09,13.62-3,25.26-8.55,34.65-5.81,9.73-14.46,17.06-25.72,21.78a76.39,76.39,0,0,1-12.43,3.9l0,7a15.87,15.87,0,0,1-15.85,15.75l-15.63-.09a15.86,15.86,0,0,1-15.74-15.93l0-6.39-4.41-1.23a87.73,87.73,0,0,1-22.94-10.07,95.62,95.62,0,0,1-16.16-12.77A15.93,15.93,0,0,1,463.32,357.91Z"/><path class="cls-1" d="M530.77,27.23c147.72,0,268.26,116.32,275.05,262.35a13.62,13.62,0,0,0,13.6,13h0A13.62,13.62,0,0,0,833,288.36a301.3,301.3,0,0,0-51.37-155A303.32,303.32,0,0,0,648.56,23.79a302.25,302.25,0,0,0-287,27.9A303.27,303.27,0,0,0,252,184.79,300,300,0,0,0,228.88,282H174.07a8,8,0,0,0-6.95,12l16.63,28.81,41.12,71.21L266,465.29l16.64,28.81a8,8,0,0,0,13.89,0l14.66-25.39,2-3.42,31.29-54.2,9.82-17,6.26-10.84,34.86-60.37L412,294.06a8,8,0,0,0-7-12H343.53c10.25-94.35,90.17-167.79,187.24-167.79,104.14,0,188.54,84.51,188.35,188.69A188.35,188.35,0,0,1,404.38,442.23a13.6,13.6,0,0,0-21,3.61h0a13.66,13.66,0,0,0,2.85,16.66,215.77,215.77,0,1,0-70-180.48h-3.85a13.79,13.79,0,0,0-13.89,13.29A13.61,13.61,0,0,0,312,309.25h59.76l-23.4,40.54-17.71,30.68-.59,1L294.23,443.6l-4.67,8.08-41.11-71.21-16.18-28-24.94-43.19H235.7a20.51,20.51,0,0,0,20.51-20.51V282h0C266.7,139.55,385.62,27.23,530.77,27.23Z"/><path class="cls-1" d="M820.35,323.31a13.61,13.61,0,0,0-13.61,13.62h0a13.62,13.62,0,0,0,27.23,0h0A13.62,13.62,0,0,0,820.35,323.31Z"/><path class="cls-1" d="M820.35,371.87a13.61,13.61,0,0,0-13.61,13.62v10.89a13.62,13.62,0,1,0,27.23,0V385.49A13.62,13.62,0,0,0,820.35,371.87Z"/><path class="cls-1" d="M820.35,431.33A13.61,13.61,0,0,0,806.74,445h0A13.62,13.62,0,0,0,834,445h0A13.62,13.62,0,0,0,820.35,431.33Z"/></svg>