<svg id="Layer_1" data-name="Layer 1" xmlns="http://www.w3.org/2000/svg" viewBox="0 0 1000 1000"><defs><style>.cls-1{fill:#ff1414;}</style></defs><path class="cls-1" d="M385.86,498.44a13.56,13.56,0,0,1-12.09-19.69C430,367.66,524,296.49,653,267.24a13.34,13.34,0,0,1,16.23,10.23A13.6,13.6,0,0,1,659,293.69C538.23,321.08,450.4,387.45,398,491A13.61,13.61,0,0,1,385.86,498.44Z"/><path class="cls-1" d="M610.67,497.81a191,191,0,0,1-39.82-4.23c-54-11.53-102.25-45.69-132.31-93.8a13.55,13.55,0,0,1,23-14.36c26.16,41.92,68.07,71.64,115,81.63,44.71,9.53,89.79.14,130.34-27.19a204,204,0,0,0,21.19-16.52C828.28,333.81,823.55,160.15,818,96.51c-63.84,47.31-118.38,41-167.09,35.45-54.71-6.27-101.73-11.66-163.07,46.85-31.55,33.55-48.61,69.7-51.51,108.42a13.57,13.57,0,1,1-27.06-2c3.33-44.45,23.43-87.37,58.08-124.12C539.67,91.91,597.84,98.57,654,105c52.47,6,102.32,11.79,165.66-44.85a13.36,13.36,0,0,1,13.59-2.67,13.57,13.57,0,0,1,8.83,10.63c1.64,10.36,38.66,255.16-96,375.38A223.43,223.43,0,0,1,722,462.32C687.17,485.81,649.29,497.81,610.67,497.81Z"/><path class="cls-1" d="M593.44,387.69c-31.68,0-60.67-13.86-86.29-41.39a13.53,13.53,0,0,1,19.79-18.46c23.35,25,48.24,35.49,76.87,32.09,7.86-.73,14.19,4.43,15.09,11.83a13.56,13.56,0,0,1-11.83,15.09A110.55,110.55,0,0,1,593.44,387.69Z"/><path class="cls-1" d="M594.51,312.22a13.52,13.52,0,0,1-11.63-6.63c-17.56-29.46-16-58,4.53-84.83a13.55,13.55,0,1,1,21.53,16.45c-13.7,17.93-14.56,34.72-2.8,54.52a13.58,13.58,0,0,1-11.63,20.49Z"/><path class="cls-1" d="M165.75,675a13.56,13.56,0,0,1-9.63-23.09l64-64.54a183.73,183.73,0,0,1,130.78-54.21H574.62a84,84,0,0,1,83.93,83.93A52.64,52.64,0,0,1,606,669.64H410.49a13.57,13.57,0,1,1,0-27.13H606a25.49,25.49,0,0,0,25.46-25.45,56.88,56.88,0,0,0-56.81-56.81H350.91a156.86,156.86,0,0,0-111.59,46.21l-63.94,64.48A13.47,13.47,0,0,1,165.75,675Z"/><path class="cls-1" d="M359.21,868.42a13.56,13.56,0,0,1-9.6-23.16l32.72-32.72A75,75,0,0,1,442,790.92l20.82,1.87a559.09,559.09,0,0,0,329.63-72,403.25,403.25,0,0,0,111.79-94.5l41.09-50.07a19.32,19.32,0,0,0-2.6-27,64.13,64.13,0,0,0-88.83,6.36l-9.37,10.3a185.37,185.37,0,0,1-137.27,61H645a13.56,13.56,0,0,1,0-27.12H707.3a158.07,158.07,0,0,0,117.18-52.08l9.36-10.29a91.13,91.13,0,0,1,126.25-9,46.54,46.54,0,0,1,6.23,65l-41.11,50.08A430,430,0,0,1,806,744.27a586.87,586.87,0,0,1-345.49,75.5l-20.83-1.86a47.57,47.57,0,0,0-38.12,13.83L368.8,864.46A13.62,13.62,0,0,1,359.21,868.42Z"/><path class="cls-1" d="M303.6,1000a40.78,40.78,0,0,1-28.92-11.93L35.24,748.64a41,41,0,0,1,0-57.91l60.58-60.54c15.46-15.4,42.41-15.5,57.87,0L393.13,869.59a41,41,0,0,1,0,57.91l-60.58,60.57h0A40.81,40.81,0,0,1,303.6,1000ZM323,978.48h0ZM124.77,645.31a13.74,13.74,0,0,0-9.76,4L54.43,709.92a13.82,13.82,0,0,0,0,19.53L293.87,968.88a13.79,13.79,0,0,0,19.52,0l60.54-60.58a13.79,13.79,0,0,0,0-19.52L134.5,649.38A13.59,13.59,0,0,0,124.77,645.31Z"/></svg>