<svg id="Layer_1" data-name="Layer 1" xmlns="http://www.w3.org/2000/svg" viewBox="0 0 1000 1000"><defs><style>.cls-1{fill:#ff1414;}</style></defs><path class="cls-1" d="M165.75,675a13.56,13.56,0,0,1-9.63-23.09l64-64.54a183.73,183.73,0,0,1,130.78-54.21H574.62a84,84,0,0,1,83.93,83.93A52.64,52.64,0,0,1,606,669.64H410.49a13.57,13.57,0,1,1,0-27.13H606a25.49,25.49,0,0,0,25.46-25.45,56.88,56.88,0,0,0-56.81-56.81H350.91a156.86,156.86,0,0,0-111.59,46.21l-63.94,64.48A13.47,13.47,0,0,1,165.75,675Z"/><path class="cls-1" d="M359.21,868.42a13.56,13.56,0,0,1-9.6-23.16l32.72-32.72A75,75,0,0,1,442,790.92l20.82,1.87a559.09,559.09,0,0,0,329.63-72,403.25,403.25,0,0,0,111.79-94.5l41.09-50.07a19.32,19.32,0,0,0-2.6-27,64.13,64.13,0,0,0-88.83,6.36l-9.37,10.3a185.37,185.37,0,0,1-137.27,61H645a13.56,13.56,0,0,1,0-27.12H707.3a158.07,158.07,0,0,0,117.18-52.08l9.36-10.29a91.13,91.13,0,0,1,126.25-9,46.54,46.54,0,0,1,6.23,65l-41.11,50.08A430,430,0,0,1,806,744.27a586.87,586.87,0,0,1-345.49,75.5l-20.83-1.86a47.57,47.57,0,0,0-38.12,13.83L368.8,864.46A13.62,13.62,0,0,1,359.21,868.42Z"/><path class="cls-1" d="M303.6,1000a40.78,40.78,0,0,1-28.92-11.93L35.24,748.64a41,41,0,0,1,0-57.91l60.58-60.54c15.46-15.4,42.41-15.5,57.87,0L393.13,869.59a41,41,0,0,1,0,57.91l-60.58,60.57h0A40.81,40.81,0,0,1,303.6,1000ZM323,978.48h0ZM124.77,645.31a13.74,13.74,0,0,0-9.76,4L54.43,709.92a13.82,13.82,0,0,0,0,19.53L293.87,968.88a13.79,13.79,0,0,0,19.52,0l60.54-60.58a13.79,13.79,0,0,0,0-19.52L134.5,649.38A13.59,13.59,0,0,0,124.77,645.31Z"/><path class="cls-1" d="M293.29,458.42a36.84,36.84,0,0,0-.73-28.24,197.21,197.21,0,0,1-8.76-24.63,36.82,36.82,0,0,0-24.49-25.16l-23.08-7.2c-3.29-1-7.23-3.05-7.23-6.86V279a6.23,6.23,0,0,1,4.38-6l24.74-7.72A37,37,0,0,0,283,238.58a100,100,0,0,1,8.46-22.73A36.37,36.37,0,0,0,292.94,186l-12-30.92a6.28,6.28,0,0,1,1.42-6.67l64.3-64.31a6.3,6.3,0,0,1,6.7-1.43L385.08,95a36.81,36.81,0,0,0,28.32-.68A200.67,200.67,0,0,1,438,85.51,36.81,36.81,0,0,0,463.21,61L470.41,38c1-3.3,3-7.23,6.86-7.23h87.34a6.2,6.2,0,0,1,6,4.36L577.73,58c5.68,18.18,17.32,25,26.11,27.49a198,198,0,0,1,24.65,8.78,36.94,36.94,0,0,0,28.3.68l31.72-12.31a6.26,6.26,0,0,1,6.7,1.41l64.32,64.32c1.76,1.76,2.31,4.37.87,8.08L749,186a36.36,36.36,0,0,0,1.43,29.9,99,99,0,0,1,8.46,22.71,37,37,0,0,0,24.95,26.74L808.46,273a6.24,6.24,0,0,1,4.42,6v87.34a6.2,6.2,0,0,1-4.36,6l-22.94,7.15c-18.18,5.68-25,17.33-27.49,26.1a198.21,198.21,0,0,1-8.77,24.64,37.49,37.49,0,0,0-3.14,13.51q15.78.06,30.85.18a7.36,7.36,0,0,1,.44-1.38A227.87,227.87,0,0,0,787.63,414c.26-.9.94-3.29,7.1-5.21l22.94-7.15a36.8,36.8,0,0,0,25.93-35.3V279a36.85,36.85,0,0,0-26-35.32L792.94,236a6.05,6.05,0,0,1-4.17-4.42,130.23,130.23,0,0,0-11.09-29.84,5.56,5.56,0,0,1-.06-4.63l12-30.9a37,37,0,0,0-8.35-39.52L716.93,62.34A37,37,0,0,0,677.39,54L645.67,66.33a6.37,6.37,0,0,1-4.89-.21A229.64,229.64,0,0,0,612.27,56c-.9-.25-3.28-.94-5.2-7.1l-7.16-22.94A36.79,36.79,0,0,0,564.61,0H477.27c-16.77,0-30.64,11-36.19,28.79l-7.21,23.09A6.17,6.17,0,0,1,429.62,56,229.78,229.78,0,0,0,401.1,66.12a6.37,6.37,0,0,1-4.89.21L364.46,54A37,37,0,0,0,325,62.35l-64.31,64.31a37,37,0,0,0-8.35,39.52l12,30.9a5.71,5.71,0,0,1-.08,4.63,129.67,129.67,0,0,0-11.09,29.85A6.07,6.07,0,0,1,249,236l-24.74,7.72A36.79,36.79,0,0,0,198.28,279v87.34c0,16.78,11,30.65,28.81,36.19l23.08,7.2a6.17,6.17,0,0,1,4.08,4.27,231.81,231.81,0,0,0,10.16,28.51,6.25,6.25,0,0,1,.23,4.82l-9.16,23.59q17.29-2.37,34.7-4.48Z"/><path class="cls-1" d="M520.94,143.33c-98.88,0-179.33,80.44-179.33,179.33A178.91,178.91,0,0,0,400.5,455.41q23.73-1.89,47.3-3.43a148.71,148.71,0,0,1-75.47-129.32c0-82,66.67-148.61,148.61-148.61s148.62,66.66,148.62,148.61a148.54,148.54,0,0,1-64.49,122.43q24.23-.58,47.63-.91a178.69,178.69,0,0,0,47.58-121.52C700.28,223.77,619.83,143.33,520.94,143.33Z"/><path class="cls-1" d="M747.23,454,779,451.81l-1.72-4.44a6.15,6.15,0,0,1-.24-3.49q-15.06-.12-30.85-.18A36.41,36.41,0,0,0,747.23,454Z"/></svg>